<svg xmlns="http://www.w3.org/2000/svg" viewBox="0 0 115.95 131.27"><defs><style>.cls-1{fill:#f5f5f5;}.cls-2{fill:#1f2f1e;}.cls-3{fill:#95a1ad;}</style></defs><title>dropper</title><g id="Layer_2" data-name="Layer 2"><g id="WIRE_FRAME_LAYER" data-name="WIRE FRAME LAYER"><path class="cls-1" d="M29.65,7.37C45.54-.47,65-3.19,80.47,4.86c6.8,3.53,12.43,8.87,18,14.15,3.86,3.68,7.76,7.4,10.72,11.85,6.2,9.32,7.78,21.23,6.24,32.44-.8,5.84-8.85,21.87-11.38,27.21C95.4,108.66,83.07,110.17,63.67,115a44.11,44.11,0,0,1-12.55,1.61c-8.34-.37-16-4.39-23.08-8.67C20.76,103.56,12,88.43,6.72,81.75c-9.41-12-7.09-25.54-4.06-40.67C6.91,19.83,17,15.63,29.65,7.37"/><path class="cls-2" d="M46.92,36l3.72-6.64c.27-.47.6-1,1.14-1.09a1.92,1.92,0,0,1,1.36.54,23.86,23.86,0,0,0,7.52,3.7,1.8,1.8,0,0,0,1.29,0,1.9,1.9,0,0,0,.78-1.19,15.67,15.67,0,0,1,3.56-6.53c1.8-1.74,4.65-2.62,6.88-1.48s3.12,3.74,2.94,6.13a17.5,17.5,0,0,1-2.43,6.73,3.4,3.4,0,0,0-.57,1.95c.21,1.67,4.66,3,5.92,4.07,0,0-.77,2-1.28,3.57a12.69,12.69,0,0,1-2.62,4.07Q61.53,42.92,47.28,37.34"/><path class="cls-2" d="M50.05,42c-6.26,11.2-12.21,22.58-18.4,33.81-1.55,2.82-3.34,5.63-4.12,8.78-1,4,1.26,7.1.77,11-.46,3.7-9.15,16-.38,16.67a2.54,2.54,0,0,0,2.51-1.2c1.64-3.21,3.81-6.48,5.67-9.57,2.64-4.38,5.61-2,9.43-3.87,4.17-2,5.48-8.52,7.3-12.35C58.44,73.45,64.95,62,69.89,50a1.16,1.16,0,0,0-.74-1.57c-5.58-2-10.76-5-16.13-7.51-1.65-.77-4.45,1.61-2.22,2.66C56.17,46.06,61.35,49,66.93,51l-.74-1.57C61.24,61.55,54.73,73,49.13,84.75c-1.14,2.4-2,5.31-3.38,7.55a6.4,6.4,0,0,1-5,3.18c-1.28.24-2.57,0-3.84.46-2.51.9-3.45,2.75-4.54,5-1.61,3.38-4,6.25-5.67,9.57l2.51-1.2c-2.59-.19,2.35-11.28,2.79-13.17a12.15,12.15,0,0,0,.5-3.42c-.15-2.45-1.72-4.08-1.45-6.73.53-5.13,4.7-10.54,7.15-15,5.18-9.52,10.24-19.1,15.52-28.55,1.07-1.91-2.85-2-3.7-.48Z"/><path class="cls-3" d="M25.36,113.66c-1.84,2.92-3.87,6.57-3.89,10.11,0,2.48,2,7.8,5.35,7.5,2.28-.21,2.35-2.69,2.11-4.47-.6-4.39-3.42-8.68-2.64-13.21.06-.33-.91-.16-1,.14a14.84,14.84,0,0,0,.82,6.68c.68,2.36,2.58,6,1.88,8.53-.92,3.3-3.9.09-4.73-1.66a8.67,8.67,0,0,1-.74-4.88c.42-3.08,2.08-6.17,3.71-8.75.22-.35-.74-.23-.89,0Z"/><path class="cls-3" d="M37.62,73.41a32.57,32.57,0,0,1,14.22.47l2.44-1.47L29.5,75.63l-.7,1.3c7.29-1.67,15.87-.11,23.27.3L53.7,75.8q-9.16,1.7-18.23,3.78c-1,.22-2.8,1.48-.7,1.3A65.29,65.29,0,0,1,46,80.9l1.63-1.44q-9.8,1.57-19.4,4c-.94.24-2.82,1.49-.7,1.3A186.3,186.3,0,0,1,46.24,84l.6-1.16q-7.91,2.58-16,4.38c-.83.18-3.68,1.62-1.22,1.42,4.56-.37,9.11-.55,13.69-.53l1.11-1.32L30.85,90.56c-.51.14-2.82,1.26-1.11,1.32.76,0,8.07-.29,8.33.15-.11-.19-8.32,3.48-9.09,3.8s-1.3,1-.16,1c1.88,0,3.8-.08,5.67,0s2.11-.61,1,.61c-2,2.17-6.86,3.72-9.44,5.11-.1.05-.75.52-.35.68,3.17,1.26,1.62,1.52-1,3.64-.76.61,2.76.25,3.49-.33l4.2-3.38c.52-.42-.16-.56-.48-.59-3.4-.33,2.5-2.87,3.12-3.21l6-3.25c.63-.34.52-.79-.21-.79s-7.47.6-7.79.21c.31.37,8.25-3.45,9.09-3.8.66-.28,1.28-.94.16-1l-10-.37-1.11,1.32L44.7,87.95c.49-.13,2.83-1.31,1.11-1.32q-7.28,0-14.52.56l-1.22,1.42q9.17-2,18.08-4.93c.55-.18,2.07-1.14.6-1.16a194.49,194.49,0,0,0-19.54.77l-.7,1.3q9.1-2.3,18.36-3.77c.49-.08,3.51-1.27,1.63-1.44a70,70,0,0,0-12.05,0l-.7,1.3q8.56-1.95,17.2-3.54c.45-.08,3.53-1.33,1.63-1.44-8.62-.48-17.58-1.85-26.09.1-.95.22-2.8,1.57-.7,1.3l24.77-3.23c.3,0,3.74-1.15,2.44-1.47a38.34,38.34,0,0,0-16.66-.36c-1.5.28-3.46,1.87-.74,1.35Z"/></g></g></svg>