<svg xmlns="http://www.w3.org/2000/svg" viewBox="0 0 115.95 116.65"><defs><style>.cls-1{fill:#f5f5f5;}.cls-2{fill:#1f2f1e;}.cls-3{fill:#a7c081;}.cls-4{fill:#a6bf81;}</style></defs><title>plant</title><g id="Layer_2" data-name="Layer 2"><g id="WIRE_FRAME_LAYER" data-name="WIRE FRAME LAYER"><path class="cls-1" d="M86.3,109.28c-15.89,7.83-35.32,10.55-50.82,2.5-6.8-3.53-12.43-8.87-18-14.15C13.64,94,9.75,90.24,6.79,85.8.59,76.48-1,64.57.55,53.36c.8-5.84,8.85-21.87,11.38-27.21C20.55,8,32.88,6.48,52.28,1.64A44.11,44.11,0,0,1,64.83,0c8.34.37,16,4.39,23.08,8.67,7.28,4.39,16.07,19.52,21.32,26.2,9.41,12,7.09,25.54,4.06,40.67C109,96.82,98.91,101,86.3,109.28"/><path class="cls-2" d="M40.71,40.63c1.5.22,4.22,0,4.89,1.28.28.56,0,2.14,0,2.82q0,4.06-.07,8.12-.07,9.14-.12,18.29c-.07,11-.36,22-.25,32.94.06,5.71,3.47,9.07,9.24,9.1,3.89,0,8.49-1.66,10.05-5.55,1.44-3.58.61-8.77.62-12.56q0-8.28,0-16.56,0-10.17,0-20.33,0-4.1,0-8.2c0-2.45-.71-7.2,1.32-9l-2.57,1h1.27c1.18,0,4.19-1.73,1.62-1.76-4,0-5.42,1.93-5.48,5.81s0,7.7,0,11.54q0,16.39,0,32.79c0,4,0,8,0,12,0,2.23.42,6-1.57,7.55-1.27,1-5.73,1.11-7.1.49a5.78,5.78,0,0,1-2-1.41C49,107.22,49,105.16,49,103c-.1-9.64.16-19.3.22-28.94.07-11.42.12-22.84.26-34.27,0-.25-.58-.35-.7-.35-1.89-.11-3.73-.3-5.6-.58-1-.14-4.47,1.45-2.46,1.74Z"/><path class="cls-3" d="M56,54.34c-.23-14.3-2.07-30-14.59-39-.47-.34-2.17.43-1.81.69,12.49,9,14.25,24.58,14.48,38.81,0,.41,1.94.1,1.93-.52Z"/><path class="cls-3" d="M55.24,43.07a17.1,17.1,0,0,1,11.8-13c1.18-.35.82-1.76-.38-1.4A19.14,19.14,0,0,0,53.27,43.2c-.21,1,1.78.78,2-.13Z"/><path class="cls-4" d="M63.68,30.53A6.28,6.28,0,0,1,67,22.72c2.3-1,4.91-.43,7.39-.24a26.41,26.41,0,0,0,12-1.86c-2.17,2.46-5.82,3.16-8.08,5.53-1.41,1.47-2.16,3.47-3.55,5a7.59,7.59,0,0,1-11.28-.21"/><path class="cls-4" d="M49.06,26.54a9.84,9.84,0,0,0,3.33-8.64,9.84,9.84,0,0,0-5.46-7.47,20.6,20.6,0,0,0-4.56-1.31A20.8,20.8,0,0,1,35.22,6.6,7.72,7.72,0,0,1,31.43.34l-.66,20.42a7.94,7.94,0,0,0,.48,3.74c1.11,2.29,4,2.94,6.54,3.32,3.71.56,7.83,1,10.91-1.1"/><path class="cls-3" d="M47.75,71.12,60.46,68l-1-.86c-3.19,3.78-7.21,6.3-11.42,8.77-.89.52.1,1.25.79,1L59,73.35l-.79-1-12,8.07c-.88.59.1,1.19.79,1l12-3.2-1-.86Q53,81.86,47.75,86c-1,.74.32,1.26,1,.92l10.84-5.2-1.21-.77c-3.11,2.86-6.34,5.54-9.72,8.08-1,.76.35,1.18,1,.92A81.23,81.23,0,0,1,62,86.37l-.79-1L47.88,95.28c-.85.63.08,1.18.79,1a124.2,124.2,0,0,0,13-4l-1-.92-9.87,8.56c-.75.65,0,1.25.79,1,3.09-1,6.1-2,9.1-3.25l-1.21-.77a40.81,40.81,0,0,1-9.69,8c-.71.43-.16,1.17.53,1.05L56,105l-.7-.91-5,4.88c-.66.64.46,1,1,.86,3.29-.94,6.6-1.75,10-2.44l-1-.86L56,110.64c-.85.82,1,1,1.6.5L61.88,107c.69-.66-.49-1-1-.86-3.35.69-6.66,1.51-10,2.44l1,.86,5-4.88c.53-.51-.18-1-.7-.91l-5.75,1,.53,1.05a42.5,42.5,0,0,0,10-8.27c.73-.82-.71-1-1.21-.77-2.83,1.14-5.69,2.16-8.6,3.06l.79,1,9.87-8.56c.94-.81-.31-1.18-1-.92a119.25,119.25,0,0,1-12.52,3.83l.79,1,13.29-9.92c.86-.64-.09-1.15-.79-1a84.79,84.79,0,0,0-12.71,3.72l1,.92c3.5-2.63,6.84-5.41,10.06-8.37.8-.73-.73-1-1.21-.77L48,85.85l1,.92q5.47-4.26,10.62-8.9c.7-.63-.48-1-1-.86l-12,3.2.79,1,12-8.07c.85-.57-.08-1.25-.79-1L48.55,75.66l.79,1c4.36-2.56,8.48-5.17,11.76-9.06.58-.69-.41-1-1-.86L47.43,69.9c-1.19.3-.86,1.52.33,1.22Z"/></g></g></svg>