<svg xmlns="http://www.w3.org/2000/svg" viewBox="0 0 1183.7 143.62"><defs><style>.cls-1{fill:#fff;}</style></defs><title>squiggle</title><g id="Layer_2" data-name="Layer 2"><g id="WIRE_FRAME_LAYER" data-name="WIRE FRAME LAYER"><path class="cls-1" d="M29.15,45.21a545.94,545.94,0,0,1,91.08-26.69L117.9,9.78l-89,39.75c-2.46,1.1-7.1,3.49-5.59,6.83s8.18,2,10.54,1.39A684.68,684.68,0,0,1,112.2,42.44l-4.53-7.66A594.69,594.69,0,0,1,8.55,76.4L11,85.46A1065.89,1065.89,0,0,1,186.7,44.64L182.17,37A454.37,454.37,0,0,1,59.94,77.11l2.34,8.74A784.25,784.25,0,0,1,232.1,41.46l-2.34-8.74Q130.89,79.83,27.7,116.93c-2.53.91-7,3.62-5.59,6.83s8.18,2,10.54,1.39q113-29.44,224.71-63.31,31.76-9.63,63.41-19.62l-5-8.21a1172.34,1172.34,0,0,1-212.49,74.52q-30.75,7.54-61.87,13.39l-.18,9.59Q164.64,98.86,289.9,74q35.82-7.08,71.77-13.5l-2.34-8.74Q236.83,102.37,110.2,142l2.43,9.06L405.75,59.18l83-26-5-8.21A1347.71,1347.71,0,0,1,235.65,99.53l-.18,9.59q122.34-25,244.46-51.05Q515,50.59,550,43l-5-8.21a1266,1266,0,0,1-256.4,76.61l-.18,9.59L556.39,52.06l-5-8.21a974.26,974.26,0,0,1-207.7,73.08l2.43,9.06L615.05,60.38l76.83-18.75-7.14-7.14c-74.16,44-158.88,64-242,83.71l2.43,9.06Q565,89.32,686.73,57.55,721,48.61,755.42,40.17L748.28,33a1387.69,1387.69,0,0,1-184.21,77.51c-2.55.86-7,3.65-5.59,6.83s8.15,1.92,10.54,1.39L840.54,57.88l-7.14-7.14C767,88,692,105.28,618.39,122.29l2.43,9.06q121.64-39.1,245.4-71.12,35.34-9.14,70.83-17.68l-7.14-7.14a718.8,718.8,0,0,1-165.49,78.36l2.43,9.06q118.27-39,238-73.33,34-9.75,68.2-19.12l-7.14-7.14a737.36,737.36,0,0,1-176.29,88.48l7.48,7.36A1642.74,1642.74,0,0,1,1071.18,52L1064,44.87a1015.23,1015.23,0,0,1-140.11,73.48c-2.47,1.06-7.09,3.52-5.59,6.83s8.21,2.08,10.54,1.39q98.31-29.28,197.63-55l-7.14-7.14a872.4,872.4,0,0,1-115.5,56.78c-2.5,1-7.07,3.55-5.59,6.83s8.25,2.15,10.54,1.39L1116,93.56l-7.14-7.14-50.48,29.65c-7.11,4.18-1.83,8.68,4.53,7.66l77-12.37-4.53-7.66-25.89,16.23c-1.9,1.19-4.64,3.25-3.4,5.75s5.76,2.07,7.93,1.91l34.05-2.39-4.53-7.66-16.49,10c-7,4.26-1.88,8.64,4.53,7.66l41-6.28c3.34-.51,10.28-2.25,11-6.35s-5.8-4.14-8.24-3.77l-41,6.28,4.53,7.66,16.49-10c1.91-1.16,4.63-3.28,3.4-5.75s-5.76-2.07-7.93-1.91l-34.05,2.39,4.53,7.66,25.89-16.23c6.89-4.32,2-8.71-4.53-7.66l-77,12.37,4.53,7.66,50.48-29.65c2-1.19,5.17-3.84,3.07-6.31s-7.68-1.68-10.21-.83L1006.4,120.34l5,8.21a906.13,906.13,0,0,0,119.87-58.93c2-1.19,5.16-3.84,3.07-6.31s-7.57-1.51-10.21-.83q-99.3,25.74-197.63,55l5,8.21a1046.94,1046.94,0,0,0,144.48-75.63c2-1.24,5.19-3.8,3.07-6.31s-7.66-1.65-10.21-.83a1689.22,1689.22,0,0,0-179.11,68.77c-2.48,1.12-7.87,4-5.25,7.38s9.83,1,12.73,0a756.74,756.74,0,0,0,180.66-90.63c8.6-5.87-.87-8.86-7.14-7.14Q950.54,54.28,831.81,92q-33.76,10.72-67.39,21.82c-2.6.86-9.51,3.15-8.45,7.12,1,3.75,8.47,2.72,10.87,1.94A758.21,758.21,0,0,0,941.76,40.62c2-1.26,5.2-3.79,3.07-6.31s-7.55-1.47-10.21-.83q-124.21,29.94-246.55,67-34.93,10.6-69.68,21.78c-2.61.84-9.5,3.17-8.45,7.12s8.41,2.51,10.87,1.94c77-17.8,154.94-36.39,224.43-75.4,2-1.15,5.15-3.86,3.07-6.31s-7.52-1.43-10.21-.83L566.6,109.7l5,8.21A1420.85,1420.85,0,0,0,760.13,38.25c2.1-1.07,5.11-3.9,3.07-6.31s-7.55-1.48-10.21-.83q-122.08,30-242.52,66.18-33.92,10.21-67.7,20.91c-2.61.83-9.5,3.18-8.45,7.12s8.41,2.53,10.87,1.94c86.42-20.46,174.27-41.82,251.39-87.56,2-1.19,5.17-3.83,3.07-6.31s-7.55-1.48-10.21-.83L420.56,98.18l-76.83,18.75c-2.66.65-9.47,3.3-8.45,7.12s8.41,2.51,10.87,1.94A998.9,998.9,0,0,0,558.91,51.21c2.42-1.17,7.12-3.44,5.59-6.83-1.47-3.23-8.18-2-10.54-1.39L286,111.95c-2.67.69-8.58,2.91-8.43,6.47s5.85,3.56,8.25,3.12A1315.76,1315.76,0,0,0,552.54,42.18c2.48-1,7.08-3.53,5.59-6.83S550,33.44,547.58,34Q425.53,60.32,303.25,85.62q-35.1,7.26-70.21,14.44c-2.68.55-8.57,3-8.43,6.47s5.85,3.59,8.25,3.12A1402.16,1402.16,0,0,0,491.24,32.33c2.49-1,7.08-3.55,5.59-6.83s-8.23-2.11-10.54-1.39L193.16,116l-83,26c-2.62.82-9.5,3.18-8.45,7.12,1,3.77,8.47,2.69,10.87,1.94q129.05-40.32,254.18-91.94c2.07-.85,6.73-3.25,5.92-6.27s-6-2.87-8.26-2.47Q236.79,73.25,110.72,104.11q-36,8.83-71.87,18.33c-2.67.71-8.58,2.9-8.43,6.47s5.85,3.57,8.25,3.12a1214,1214,0,0,0,224-64.62q30.66-12.17,60.61-26c2.44-1.13,7.11-3.47,5.59-6.83-1.43-3.15-8.23-2.11-10.54-1.39Q207,68.27,94.37,99q-32,8.73-64.14,17.09l5,8.21q103.06-37,202.06-84.21c2-1,6.75-3.18,5.92-6.27s-6-2.79-8.26-2.47A831.69,831.69,0,0,0,54.8,78.49c-2.08.8-6.72,3.28-5.92,6.27s6,2.86,8.26,2.47A507,507,0,0,0,194,42.19c2-1,4.57-3.4,3.4-5.75s-5.82-2.22-7.93-1.91A1097.87,1097.87,0,0,0,8.55,76.4c-2.61.84-9.5,3.17-8.45,7.12,1,3.76,8.47,2.7,10.87,1.94A649.85,649.85,0,0,0,119.53,40c2-1,4.59-3.36,3.4-5.75S117.12,32,115,32.32A731,731,0,0,0,31.41,48.68l5,8.21,89-39.75c2.05-.92,6.74-3.21,5.92-6.27S125.24,8,123,8.4A606,606,0,0,0,21.68,37.84c-2.55,1-7.81,4.11-5.25,7.38s9.9,1.08,12.73,0Z" transform="translate(0 -8.19)"/></g></g></svg>