<svg xmlns="http://www.w3.org/2000/svg" viewBox="0 0 122.82 121.78"><defs><style>.cls-1{fill:#f5f5f5;}.cls-2{fill:#7098a9;}.cls-3{fill:#1f2f1e;}</style></defs><title>cow</title><g id="Layer_2" data-name="Layer 2"><g id="WIRE_FRAME_LAYER" data-name="WIRE FRAME LAYER"><path class="cls-1" d="M116.1,32.63c6,16.71,6.33,37-4,53-4.52,7-10.77,12.81-16.94,18.49-4.3,4-8.65,8-13.62,11-10.43,6.3-22.93,7.73-34.32,5.93a54.29,54.29,0,0,1-16.86-5.46C12.73,106.28,3,86.5.5,66.18a45.53,45.53,0,0,1,0-13.11c1.46-8.69,6.6-16.58,11.95-23.91,5.48-7.51,11.44-14.91,19-20.27C45-.72,62.36-1.6,77.6,1.83c21.4,4.82,31.6,17.49,38.5,30.8"/><path class="cls-2" d="M7.79,91.9c3.89-.62,7.83-1.09,11.69-1.86,2.44-.49-.67,0-1.71.39l-5.86,2.3c-.81.32-.66,1,.22.82C24.49,91.11,36.47,87,48.85,84.65c.25,0,4.59-.56,4.64-.79.21-1.09-2.6.38-2.92.49q-5.34,1.89-10.74,3.59c-2,.64-17.81,5.19-17.78,5.26.47,1.11,17.85-3.85,20-4.33,4.18-1,8.36-1.88,12.57-2.69,3.13-.6,7.3-.57,10.22-1.73,2.29-.91.12-.4-.94-.35-1.82.08-3.87,1-5.66,1.41L46.87,88.34,24.22,94c-.84.21-1.19,1.13,0,.91q17.27-3.27,34.62-6.15,8.73-1.45,17.49-2.79l8.78-1.32c.84-.12,2.68,0,3.09-.78s-3,.53-3.25.6c-22.59,6.05-46,9.41-69,13.75-.87.16-1.63,1.21-.29,1Q53.42,92,91.59,87c2.9-.38,5.94-.51,8.8-1.12.52-.11,3.72-.93,1.2-.76a32.23,32.23,0,0,0-4.59,1q-10,2.25-20.11,4.3-18.81,3.82-37.75,6.94c-.87.14-1.65,1.14-.29,1q17.88-2.32,35.8-4.28,9.25-1,18.5-1.92c6-.59,12.73-.35,18.57-1.73,1.63-.38,1.57-.62-.56-.43-1.79.16-3.62.73-5.39,1.07q-4.17.8-8.36,1.54-8.92,1.57-17.88,2.89c-12.07,1.8-24.18,3.36-36.28,4.92-.89.11-1.64,1.13-.29,1q23.31-2.95,46.72-4.93c1.9-.16,3.89-.14,5.77-.47,3-.53,3.86-1,.31-.27q-6.27,1.37-12.56,2.61-11.63,2.28-23.34,4.13c-.87.14-1.66,1.08-.29,1L87.74,101c.9-.08,1.64-1.08.29-1l-16.91,1.46c-2,.18-7.72-.29-9.39.81-1.49,1,1.35.53,1.6.52a37.85,37.85,0,0,0,4.69-.79q16.33-2.8,32.49-6.46c.57-.13,1.33-1,.27-.93Q85.3,95.85,69.85,97.41q-8.1.83-16.18,1.78c-1.56.18-7.26,0-8.53,1-1.45,1.2,1.28.7,1.65.71a35.33,35.33,0,0,0,4.79-.62C72.78,97.56,94,94.6,114.92,90.16c.88-.19,1.17-1,0-.91q-18.08,1.56-36.12,3.48-8.74.93-17.47,2c-6,.7-12.49.84-18.36,2.25-.77.18-2.38-.15-2.24,1.14,0,0,4.48-.76,4.76-.81q4.27-.73,8.54-1.5,8.48-1.53,16.94-3.2,16.85-3.32,33.58-7.21c.86-.2,1.19-1.05,0-.91q-41.69,5.11-83,12.68c-1.1.2-3.62.15-3.92,1.18s2.88-.09,3.75-.25l10.65-2,20.33-3.84c12.7-2.4,25.44-4.68,37.85-8.36.81-.24,1.22-1.08,0-.91Q63,86.9,36,91.79l-5.75,1.06c-1.49.28-6.8,1.36-2,1,4.3-.28,9-2.25,13.21-3.29L67.87,84c.85-.21,1.2-1.06,0-.91-16.11,2.14-31.81,6.34-47.61,10-1.17.27-.93,1.1.23.86a250.52,250.52,0,0,0,35-10.47c.85-.31.64-.94-.22-.82a199.29,199.29,0,0,0-24.33,5.35c-4.27,1.13-8.53,2.29-12.82,3.3-.93.22-6.46,1.83-2.13.75a57.7,57.7,0,0,0,6.7-2.63c.82-.32.66-1-.22-.82L8.08,90.94c-.88.14-1.64,1.18-.29,1Z"/><path class="cls-2" d="M16.65,102.86c4.34-1.19,8.67-2.44,13-3.79l3.6-1.15-4.71,2.38a70.75,70.75,0,0,1-8.82,3.06c-.74.22-1.31.77-.12.59q8.78-1.36,17.53-2.87,4.86-.84,9.72-1.74c1.36-.25,7.33-.68,7.87-1.71-.07.14-6.24,1.38-7.26,1.65l-8.29,2.13-17.5,4.49c-.47.12-1.41.7-.36.62,11.35-.83,22.75-1.66,33.9-4.08.78-.17,5.81-1.82,2.69-.81-2.71.88-5.36,2-8.07,2.85A182.23,182.23,0,0,1,28.23,110c-.42.08-1.83.78-.61.68,18.79-1.5,37.32-4.58,56-6.86,4.12-.5-4.26,1.31-3.82,1.18q-3.12.94-6.27,1.81-6.67,1.85-13.42,3.39c-9.57,2.19-19.24,3.88-29,5.15-.46.06-2.11.85-.85.72l35.95-3.67c1.27-.13,2.61-.39,3.89-.4,2.53,0-1.83.61-2.13.69-3.25.86-6.49,1.68-9.78,2.39-5.82,1.27-11.69,2.31-17.55,3.35-.74.13-1.75.87-.38.65q15.8-2.62,31.69-4.67c.6-.08,6.78-.94,6.79-.84.07.32-5.6,2.18-6.62,2.52-5.2,1.73-10.52,3.1-15.82,4.49-.76.2-1.29.77-.12.59a107.09,107.09,0,0,0,31.37-10c.51-.25.49-.52-.12-.46l-24.71,2.78-11.86,1.34-6.92.78-3,.33c-1.28.14-5,1.27-1.14-.38,7.52-3.25,16.58-4.41,24.53-6.37,1.54-.38,9.43-1.62,9.42-2.88,0,.61-11.87,2.53-13.35,2.78q-6.27,1.1-12.6,1.82c-.66.08-4.56.9-2.15.34,2.21-.51,4.39-1.15,6.58-1.7q13.06-3.28,26.29-5.84c1-.19,10.23-1.77,10-2.39-.15-.35-11.16,1.94-12.25,2.12Q63.68,105.49,51,107.1q-3.32.42-6.64.81c-2,.23-5,1.13-6.88.89,2.28.3,8.43-2.4,11.52-3.24q13.94-3.81,28.08-6.75c.41-.09,1.83-.82.61-.68l-33.44,3.66c-5.56.61-11.2,1-16.72,1.83-2.1.32-1.43.31.2,0,1.18-.25,2.35-.63,3.52-.92,2.9-.74,5.81-1.42,8.72-2.09,22.45-5.16,45-10.28,68-12.66.48,0,2.1-.85.85-.72a415.75,415.75,0,0,0-43.31,7.15c-13.83,2.93-27.78,5.8-41.38,9.69-.44.13-1.42.74-.36.62,16.31-1.78,33-2.7,49.18-5.38.41-.07,5.53-1.09.87-.33-1.83.3-3.7.81-5.51,1.22q-4.71,1.08-9.41,2.25Q47,105.38,35.3,109c-.43.13-1.43.74-.36.62q27.7-3,55.1-8c.74-.14,1.74-.88.38-.65q-24.08,4.14-47.67,10.51c-.45.12-1.42.72-.36.62a228.84,228.84,0,0,0,33.35-5.71c1.12-.28,1-.81-.14-.53Q63.78,108.74,52,111.69c-5.65,1.41-11.94,2.21-17,5.14-.5.29,0,.4.31.36l27.67-3.12,13.84-1.56c2-.22,4-.53,5.93-.67,3.85-.28,1.59.22-.21,1A96.42,96.42,0,0,1,68.6,118c-2.78.78-5.75,1.09-8.48,2-1.14.37-3.78.77-.06.23,7.24-1,14.93-4.24,21.63-7.08.54-.23.46-.53-.12-.46q-9.71,1.15-19.4,2.5c-6,.85-12.79,1.09-18.61,2.83-1.41.42-2.48.73.43.46,1.54-.14,3.1-.56,4.63-.85,3.08-.58,6.16-1.18,9.22-1.84,5.38-1.17,10.7-2.55,16-4.2.51-.16.94-.63.1-.54l-27.2,2.78-5.83.6c-2.23.23-5.72-.07-7.77.79-2.84,1.19,2.28.23,2.74.16q2.42-.35,4.84-.74a313.93,313.93,0,0,0,46.65-11.34c.49-.16,1-.67.1-.54-16,2.35-32,4.7-48.11,6.32q-3,.3-5.91.56c-.91.08-5.1.95-2.75.54,3.19-.55,6.39-1.4,9.52-2.22a188.06,188.06,0,0,0,21-6.9c1.06-.42.41-.66-.4-.45a145,145,0,0,1-19.86,3.64c-3.12.37-6.26.66-9.39.92-2.37.2-5.45.94-7.72.72,1.28.12,5.22-1.25,7.17-1.75l8.29-2.13,17.5-4.49c.75-.19,1.29-.82.12-.59q-15.5,3-31.1,5.52c-1.06.17-4.12.94-4.14,1,1.77-1,4.3-1.35,6.22-2.12a37.52,37.52,0,0,0,7.68-4.17c.49-.35-1.09-.13-1.19-.1q-8.86,2.91-17.86,5.37c-1.11.3-1,.84.14.53Z"/><path class="cls-3" d="M3.35,93.71c37.24-14.19,77.72-12.63,116.85-11,1.28.05,4.16-1.79,1.58-1.9C81.54,79.13,40.19,77.86,1.91,92.45c-2.54,1-.19,1.88,1.44,1.26Z"/><path class="cls-3" d="M27.09,90c-.58-7.52-1.17-15.1-.23-22.59a26.72,26.72,0,0,0,.4-5.84c-.19-2-.92-3.88-1.3-5.83a16.19,16.19,0,0,1,0-6.23,6.91,6.91,0,0,1,1.47-3.32,7.11,7.11,0,0,1,4.43-2c4.83-.63,9.62,1.11,14.48,1.48,3.84.3,7.7-.26,11.54-.6a100.15,100.15,0,0,1,20.95.37,1.77,1.77,0,0,0,1-.07c.62-.31.61-1.2.3-1.8a7.54,7.54,0,0,1-1-1.78c.16-.74,1.25-.87,1.94-.52s1.2,1,1.92,1.27c2.53,1,4.93-2.68,7.64-2.18,1.07.2,1.89,1,2.85,1.52,2.28,1.16,5,.34,7.47-.5a3.73,3.73,0,0,1-1.84,5.82c-1.09.28-2.41.13-3.19.93a2.39,2.39,0,0,0-.51,2C95.72,51.95,97,53.42,97.8,55S98.73,59,97.19,60a4.39,4.39,0,0,1-1.79.57,8,8,0,0,1-3.91-.23A3.72,3.72,0,0,1,89,57.57l-6.47,11a22.78,22.78,0,0,1-4.22,5.69,5.77,5.77,0,0,0-1.19,1.23,4,4,0,0,0-.45,1.38,20,20,0,0,0,1.42,11.65,2.4,2.4,0,0,1,.3,1.08c-.07,1.39-2.29,1.43-3.45.62-2.27-1.58-3.21-4.39-3.71-7s-.75-5.46-2.15-7.8A22.52,22.52,0,0,0,69,85.74a8.55,8.55,0,0,1,.37,4.15c-.38,1.35-2,2.49-3.28,1.81s-1.23-2.19-1.21-3.48a37.37,37.37,0,0,0-2.41-13.86l-12.12.25a2,2,0,0,0-.85.15c-.66.34-.67,1.23-1,1.9-.52,1.11-1.89,1.52-3,2.12s-2.08,2-1.32,2.95c.39-1.12-1-2.28-2.18-2a2.83,2.83,0,0,0-2,2.66c0-2.27-2.89-3.3-5.2-3.69L36,86.33c.14.89.1,2.09-.79,2.34s-1.63-.82-1.93-1.72a38.3,38.3,0,0,1-2-11,8.69,8.69,0,0,0-2.19,6.85A30.09,30.09,0,0,0,31,90c.12.35.22.77,0,1a1.09,1.09,0,0,1-.93.21,10.93,10.93,0,0,1-2.62-.6"/></g></g></svg>