<svg xmlns="http://www.w3.org/2000/svg" viewBox="0 0 136.52 121.95"><defs><style>.cls-1{fill:#f5f5f5;}.cls-2{fill:#1f2f1e;}.cls-3{fill:#b76159;}</style></defs><title>spray2</title><g id="Layer_2" data-name="Layer 2"><g id="WIRE_FRAME_LAYER" data-name="WIRE FRAME LAYER"><path class="cls-1" d="M4.22,89.15c-6-16.71-6.33-37,4-53,4.52-7,10.77-12.81,16.94-18.49,4.3-4,8.65-8,13.62-11C49.2.35,61.71-1.08,73.09.72A54.29,54.29,0,0,1,89.95,6.18c17.64,9.31,27.38,29.1,29.87,49.42a45.53,45.53,0,0,1,0,13.11c-1.46,8.69-6.6,16.58-11.95,23.91-5.48,7.51-11.44,11.91-19,17.27-13.59,9.6-30.92,10.49-46.16,7.06-21.4-4.82-31.6-14.49-38.5-27.8"/><path class="cls-2" d="M21.34,96.75A31.09,31.09,0,0,1,23,91.18c2-5.56,4-9.65,10.66-9.91,4.14-.16,8.34.07,12.48.12,3.76,0,7.66.12,9.89,3.69a25.89,25.89,0,0,1,2.67,7.31,74.47,74.47,0,0,1,1.68,14.5c.08,1.84-.34,4.95.41,6.67.48,1.11,1,.85,1.63,1.61-2.48-3.06-1-.83-1.43.07-.53,1.14-.06,3.94-.08,5.16l3-1.83c-7.45-.83-15-1.63-22-4.47C33,110.49,26.42,103.75,21.12,95.9c-1.18-1.74-5.39,0-4.06,2,5.42,8,12.22,14.89,21.19,18.83,7.63,3.35,16,4.3,24.19,5.21,1,.12,3-.47,3-1.83a51.18,51.18,0,0,0-.18-7.59c0-.21-.53-.32-.56-.46a1.06,1.06,0,0,0-.48-.18q-1.13-.33,1.07.77c.42-.68-.28-3.48-.32-4.31-.28-5.74-.45-11.53-1.83-17.14-1-3.91-2.73-10.19-6.54-12.32-4-2.25-11.18-.91-15.61-1-4.75,0-10.13-.74-14.53,1.48C20.63,82.37,17.8,91,16.83,97c-.37,2.31,4.18,1.79,4.51-.3Z"/><path class="cls-2" d="M33.51,74.23c-.08-2.58-.16-11.75-.24-14.33a.91.91,0,0,0-1.18-1.07l-10.2.41A1.77,1.77,0,0,1,20.65,59a1.58,1.58,0,0,1-.42-1.19A9.06,9.06,0,0,1,23.6,50.9a19,19,0,0,1,7-3.51C38.71,45,47.28,45,55.71,45c.35,0,3,.13,3,.13h0c.51,1.91-.3,5.64-.25,7.62a11.23,11.23,0,0,1-.37,3c-.53.27-1.2.24-1.63.64-.73.69-.13,1.91.53,2.67a24.7,24.7,0,0,0,7.06,5.57c.94.49,2,1.07,2.22,2.11A2.24,2.24,0,0,1,64.67,69a5.63,5.63,0,0,1-3.05-.06A27,27,0,0,1,49.1,62.26c-.1,1.33-.2,9.26-.3,10.6a1.18,1.18,0,0,1-1.43,1.38l-12.95,0"/><path class="cls-2" d="M61.82,45.09a50.44,50.44,0,0,1-.22,5.67c0,1.89,0,5.17,0,5.17,1.33.94,5.07,2.22,6.53,1a9,9,0,0,0,.73-2.11c.48-1.59-2.24-1.18-2.57-2.8-.27-1.3,1.4-2.26,2.32-3.22s.25-3.23-.11-3.51a1.92,1.92,0,0,0-1.18-.2H63.24"/><path class="cls-3" d="M75.09,53.36a1.2,1.2,0,0,1,.63-1.44c.19-.1.52-.27.71-.15s.27.73.26.95c0,.52-.25.87-.77.86-.16,0-.8,0-.83-.21-.08-.47-1.05-.23-1,.26.12.7,1.34.73,1.87.7a1.73,1.73,0,0,0,1.66-1.94,1.58,1.58,0,0,0-.61-1.31,1.87,1.87,0,0,0-1.49.11,2.07,2.07,0,0,0-1.43,2.44c.15.47,1.11.21,1-.26Z"/><path class="cls-3" d="M133.94,68a1.2,1.2,0,0,1,.63-1.45c.19-.1.52-.27.71-.15s.27.73.26,1c0,.52-.24.88-.76.86-.16,0-.8,0-.83-.22-.08-.47-1.05-.22-1,.26.12.69,1.34.72,1.87.7A1.73,1.73,0,0,0,136.51,67a1.57,1.57,0,0,0-.61-1.31,1.87,1.87,0,0,0-1.49.11A2.06,2.06,0,0,0,133,68.27c.15.46,1.11.2,1-.26Z"/><path class="cls-3" d="M119.72,58.15a1.28,1.28,0,0,1,.52-1.47c.29-.19.63-.33.92,0a1.82,1.82,0,0,1,.17,1c0,.47-.24.85-.73.83-.22,0-.82,0-.87-.29s-1-.12-1,.26c.11.65,1.36.64,1.83.62a1.7,1.7,0,0,0,1.71-1.77c0-.47-.13-1.11-.6-1.33a2.42,2.42,0,0,0-2.94,2.49c.11.36,1.08.1,1-.26Z"/><path class="cls-3" d="M104.46,37c.48-.15.85.63,1,1a1.78,1.78,0,0,1,.12.68c-.05.45-.55.39-.82.12a1.19,1.19,0,0,1-.24-1,3.77,3.77,0,0,1,.07-.51,1.82,1.82,0,0,0,.05-.21c0-.23.28-.14-.27,0,.15,0,.54-.12.55-.32s-.26-.22-.41-.19c-.8.14-.93.83-1,1.55a1.3,1.3,0,0,0,1.5,1.44,2.08,2.08,0,0,0,1.27-.47,1.26,1.26,0,0,0,.12-1.27,1.6,1.6,0,0,0-2.07-1.23c-.13,0-.47.16-.42.36s.42.14.54.1Z"/><path class="cls-3" d="M97.81,49.33a1.3,1.3,0,0,1,.52,1.43,2.37,2.37,0,0,1-.33.72c-.06.1.13.17-.06,0s-.26-.16-.38-.27A1.17,1.17,0,0,1,97.15,50a1.14,1.14,0,0,1,.38-.43c.06-.05.15-.1.21-.15s.18,0,0-.11c.25.19,1.13-.19.9-.36-.58-.43-1.48.17-1.93.54a1.31,1.31,0,0,0-.12,2.07,1.45,1.45,0,0,0,2.35-.14,1.71,1.71,0,0,0-.36-2.51c-.24-.15-1.14.22-.78.44Z"/><path class="cls-3" d="M84.37,47.69a1.62,1.62,0,0,1-.4-1.48c.15-.6.88-1.31,1.37-.56a1.14,1.14,0,0,1-.16,1.4c-.21.21-.55.69-.86.63a1.19,1.19,0,0,0-.67.13c-.07,0-.34.18-.13.22a2.5,2.5,0,0,0,2-.52C86.11,47,87,46,86.13,45.2c-.64-.58-1.93-.16-2.52.31A1.68,1.68,0,0,0,83.45,48c.15.16,1-.19.91-.32Z"/><path class="cls-3" d="M92.61,44.48a2.73,2.73,0,0,1-.36-1.68c0-.14.18-.5.37-.5s.38.41.43.55a3.3,3.3,0,0,1,.27,1.44c0,.18,0,.42-.2.47s-.44-.14-.51-.28c-.16-.31-1.1,0-1,.26.35.66,1.36.63,2,.37,1-.42.74-1.63.45-2.45A1.29,1.29,0,0,0,92.1,42c-1.14.59-.88,1.77-.45,2.76.14.31,1.08,0,1-.26Z"/><path class="cls-3" d="M111.52,67.16c.28-.35.71-1,1.23-.85a.69.69,0,0,1,.28,1.14c-.2.27-.86,1-1.21.81a.91.91,0,0,1-.31-1.1c.23-.34-.73-.24-.89,0a1.13,1.13,0,0,0,.76,1.66,3.17,3.17,0,0,0,2.54-1.37c.59-.77.1-1.57-.8-1.68a2.89,2.89,0,0,0-2.5,1.39c-.15.18.13.25.25.26a.84.84,0,0,0,.64-.26Z"/><path class="cls-3" d="M84.93,53.4l-.75.2c-.24.06-.31.12-.38-.18a1.42,1.42,0,0,1,.66-1.29c.48-.21.6.7.49,1s-.39.34-.48.59.84.06,1-.16l0-.06c.08-.16-.82-.1-1,.16l0,.06,1-.16c.08-.21.37-.3.47-.54a1.13,1.13,0,0,0-.06-.94c-.39-.68-1.34-.49-1.9-.15s-1.36,1.16-1.07,1.88,1.66.07,2.15-.06c.1,0,.48-.14.44-.3s-.45-.06-.53,0Z"/><path class="cls-3" d="M128.84,50.9l-.75.2a1.18,1.18,0,0,1-.33.09q-.18.07,0-.07l0-.11a1.21,1.21,0,0,1,.2-.72c.09-.13.39-.56.57-.58.4,0,.5.72.38,1s-.38.32-.48.58.81.2.93,0l0-.06c.21-.42-.75-.33-.9,0l0,.06.93,0a1.21,1.21,0,0,0,.23-.17,1,1,0,0,0,.23-.37,1.23,1.23,0,0,0,0-.93c-.37-.76-1.36-.64-2-.25s-1.32,1.2-1,1.93,1.63.17,2.18,0,.45-.66-.14-.51Z"/><path class="cls-3" d="M91.4,51.83a.54.54,0,0,1,0-.61c.11-.15,0-.17.26-.1a1.07,1.07,0,0,1,.34.23c.22.2.88,1,.6,1.35a.93.93,0,0,1-.43.17c-.13,0,0,0,0,0a.58.58,0,0,1-.15-.16c-.24-.29-.38-.64-.61-.93s-1.1.11-.9.35c.43.55.57,1.29,1.4,1.2.5-.06,1.7-.33,1.76-1a1.94,1.94,0,0,0-.57-1.23,1.53,1.53,0,0,0-1.18-.54c-.66,0-1.93.65-1.44,1.49.16.28,1.08-.07,1-.26Z"/><path class="cls-3" d="M115.1,34.56a.47.47,0,0,1,.09.71c-.3.33-1.09-.1-1.31-.36s0-.21.12-.34a1.32,1.32,0,0,1,.29-.23.54.54,0,0,1,.74.16c.23.39,1.15,0,.88-.43-.42-.71-1.46-.62-2.1-.3a3.41,3.41,0,0,0-.86.65.67.67,0,0,0,.11,1,2.2,2.2,0,0,0,2.71.39c.55-.43.78-1.43.06-1.83a.63.63,0,0,0-.69.05c-.14.12-.27.4,0,.52Z"/><path class="cls-3" d="M108.24,47.65a.93.93,0,0,1,.13-.92c.09-.14,0-.08.06-.06a.83.83,0,0,1,.33.19,2,2,0,0,1,.41.54c.06.1.22.59.28.55a1.66,1.66,0,0,1-.38-.1,2.16,2.16,0,0,1-.9-.26c-.33-.29-1.17.2-.74.57a2.12,2.12,0,0,0,.93.33,3.86,3.86,0,0,0,1,.19,1,1,0,0,0,.94-.65,1.69,1.69,0,0,0-.43-1.3,1.5,1.5,0,0,0-2.08-.55,1.53,1.53,0,0,0-.46,1.91c.23.38,1.15,0,.88-.43Z"/><path class="cls-3" d="M82.44,59.46A1.12,1.12,0,0,1,83,58.25c.44-.18.85.45.95.81s0,1-.49,1a1,1,0,0,1-1-.63c-.16-.42-1.12-.15-1,.26.69,1.81,4,1.12,3.46-.92a1.66,1.66,0,0,0-2.07-1.2c-.77.24-1.71,1.25-1.4,2.12.15.42,1.11.15,1-.26Z"/><path class="cls-3" d="M91.35,62.92a.92.92,0,0,1,.07-.95c.06-.12.23-.43.36-.46s0,0,.08.09.18.1.27.18a1,1,0,0,1,.24,1.17c-.06.14-.2.38-.34.4s-.54-.26-.67-.43-1,.19-1,.26c1,1.34,4-.15,2.77-1.6a1.63,1.63,0,0,0-2-.14c-.5.28-1.14,1.16-.76,1.74.15.22,1-.17,1-.26Z"/><path class="cls-3" d="M120,69.37c.06-.09.08-.06.25,0a1.27,1.27,0,0,1,.5.17.84.84,0,0,1,.28,1c-.1.24-.24.42-.51.36a.89.89,0,0,1-.47-.33,1.11,1.11,0,0,1,0-1.24c.11-.18-.34-.16-.4-.15a.76.76,0,0,0-.56.3,1.25,1.25,0,0,0,.79,1.88,1.9,1.9,0,0,0,2.07-.84c.79-1.63-2.07-2.21-2.83-1.1-.22.32.73.2.89,0Z"/><path class="cls-3" d="M95.05,56.37c.09-.13.59,0,.7.1a.74.74,0,0,1,.33.95c-.17.47-.63.47-.95.12a1,1,0,0,1-.08-1.17c.25-.42-.72-.37-.91-.06a1.35,1.35,0,0,0,.62,2A1.79,1.79,0,0,0,97,57.5c.78-1.66-2-2.38-2.84-1.18-.13.2.12.32.28.33a.72.72,0,0,0,.63-.28Z"/><path class="cls-3" d="M98.54,66.23c0-.26-.07-.93.25-1.08s.82.55.88.83,0,1.07-.45,1.13-.68-.56-.68-.88-1-.07-1,.26c0,1.9,3.59,1.1,3-.83a1.47,1.47,0,0,0-1.88-.95,1.5,1.5,0,0,0-1.16,1.78c0,.26,1,0,1-.26Z"/><path class="cls-3" d="M117.82,45.37c.73-.89,1.35.51.9,1.18-.59.89-1.7-.49-1-1.12.16-.14.09-.27-.09-.32a.86.86,0,0,0-.68.18,1.15,1.15,0,0,0,.15,1.9,2.06,2.06,0,0,0,2.4-.53,1.32,1.32,0,0,0-.28-2,2,2,0,0,0-2.34.69c-.15.18.13.26.26.27a.82.82,0,0,0,.64-.26Z"/><path class="cls-3" d="M110.92,57.54c0-.27-.06-.93.28-1.06s.72.43.81.69a1.06,1.06,0,0,1-.25,1.13c-.39.33-.84-.31-.84-.68s-1-.21-1,.12c0,2,3.5,1.26,3.06-.7A1.51,1.51,0,0,0,111.1,56,1.54,1.54,0,0,0,110,57.8c.05.33,1,.11,1-.26Z"/><path class="cls-3" d="M21.3,92.37a138.49,138.49,0,0,1,29.59-4l0-1.69C41.14,90.08,31.35,93.41,21.07,95l-.58,1.93a219.56,219.56,0,0,1,31.73-3.2l.55-1.86Q39.33,95.47,26,99.4c-2.27.67-1.87,2.29.46,1.72a127.34,127.34,0,0,1,25.63-3.59l0-1.69a218.35,218.35,0,0,1-25.61,8.75c-2.31.59-1.86,2.25.46,1.72,10.66-2.44,21.5-6.05,32.47-6.69l0-1.69L30.79,108.29c-1.7.61-1.28,1.89.44,1.66l23.06-3.19.06-1.82L37,110.06c-1.05.31-2.73,2-.55,1.86l17.63-1.26-.75-1.24a22.21,22.21,0,0,1-6.58,3.75c-1.12.4-1.74,1.81,0,1.69l13-.86,0-1.69-6.75,2.41c-.69.25-2,1.56-.47,1.66A64.74,64.74,0,0,0,66,115.94c1.77-.25,3.28-2.31.58-1.93a55.77,55.77,0,0,1-11.74.43l-.47,1.66,6.75-2.41c1.12-.4,1.74-1.81,0-1.69l-13,.86,0,1.69a26.61,26.61,0,0,0,8.17-4.65c.85-.7.12-1.31-.75-1.24L38,109.92l-.55,1.86,17.4-5.14c1.63-.48,2.43-2.15.06-1.82L31.82,108l.44,1.66L61,99.29c1.13-.41,1.74-1.79,0-1.69-11.67.68-23.14,4.39-34.48,7L27,106.3A227,227,0,0,0,53.6,97.21c1.11-.44,1.75-1.76,0-1.69A137.46,137.46,0,0,0,26,99.4l.46,1.72q13.34-3.93,26.77-7.53c1.11-.3,2.7-1.92.55-1.86A226.32,226.32,0,0,0,21.07,95c-1.73.3-3.29,2.35-.58,1.93,11-1.7,21.45-5.24,31.91-8.89,1.17-.41,1.72-1.74,0-1.69a148.12,148.12,0,0,0-31.6,4.3c-2.31.57-1.86,2.29.46,1.72Z"/></g></g></svg>