<svg xmlns="http://www.w3.org/2000/svg" viewBox="0 0 123.22 124.53"><defs><style>.cls-1{fill:#f5f5f5;}.cls-2{fill:#b9a99a;}.cls-3{fill:#1f2f1e;}</style></defs><title>tube</title><g id="Layer_2" data-name="Layer 2"><g id="WIRE_FRAME_LAYER" data-name="WIRE FRAME LAYER"><path class="cls-1" d="M21,16.77C35.83,7,55.5,2,73.49,8.29c7.88,2.76,15,7.49,21.93,12.16,4.86,3.26,9.76,6.55,13.84,10.69,8.56,8.67,12.86,20.5,13.76,32a54.29,54.29,0,0,1-1.38,17.66c-4.95,19.32-21.91,33.4-41.09,40.56a45.53,45.53,0,0,1-12.74,3.09c-8.79.61-17.67-2.55-26-6-8.58-3.58-17.16-7.65-24.14-13.78C5.12,93.65.22,77,0,61.39-.3,39.46,9.65,26.58,21,16.77"/><path class="cls-2" d="M72.87,2.72A2.71,2.71,0,0,1,72.51,1c0-.13.18-.5.37-.49s.37.4.43.54a3.28,3.28,0,0,1,.27,1.43c0,.18,0,.41-.21.46a.57.57,0,0,1-.51-.27c-.17-.32-1.11,0-1,.26.35.66,1.35.65,2,.38,1-.43.74-1.65.44-2.46a1.3,1.3,0,0,0-2-.69C71.22.8,71.47,2,71.91,3c.15.33,1.09,0,1-.26Z"/><path class="cls-2" d="M57.2,14.34c0-.28-.06-.9.29-1s.71.4.8.66a1,1,0,0,1-.26,1.1c-.41.28-.83-.24-.83-.65s-1-.26-1,.1c0,2.06,3.52,1.3,3.06-.69a1.53,1.53,0,0,0-1.92-1.1,1.57,1.57,0,0,0-1.14,1.86c.06.38,1,.14,1-.26Z"/><path class="cls-2" d="M65.13,30.54c.28-.34.63-.54,1-.12a1,1,0,0,1,0,1.14c-.56.94-1.75-.36-1-1,.17-.15.08-.31-.1-.38a.78.78,0,0,0-.68.18,1.19,1.19,0,0,0,.1,1.91,2,2,0,0,0,2.43-.46,1.37,1.37,0,0,0-.2-2,1.89,1.89,0,0,0-2.34.58c-.37.45.56.47.78.19Z"/><path class="cls-3" d="M45.82,33.17c2.69-.58,3.32,8.35,3.42,9.45a56.13,56.13,0,0,1,0,10.34,56.57,56.57,0,0,1-6.16,21c-3.63,6.94-20.9,22.41-6.9,28.36,5.69,2.42,12.81,1.46,18.8,1.46,6.41,0,13.14.58,19.51-.39,3.86-.59,8.32-1.9,10.76-5.19,3.91-5.29.15-11.56-2.72-16.31A70.14,70.14,0,0,1,72.11,47.1c0-1,.48-13.69,1.41-13.29s4.38-1,3.16-1.55c-10.89-4.77-8.54,17.16-8,21.88a70.24,70.24,0,0,0,6,21.35c2.76,6,9.3,12.71,8.21,19.65-1.48,9.44-16.56,7-23.47,7-6.29,0-16.5,1.74-21.93-2.42-7.63-5.86,1.42-14.47,5.16-19.55A54.51,54.51,0,0,0,50.79,63.8c1.68-5.49,7-34.58-4.28-32.16-1.55.33-3.38,2.11-.69,1.53Z"/><path class="cls-2" d="M48.16,71a43.79,43.79,0,0,1,19.57-5.18l-.32-1.2Q58,68.25,48.93,72.5c-1,.47-.38,1.45.59,1.16A141.33,141.33,0,0,1,69.68,69l-.32-1.2A253.37,253.37,0,0,0,44.79,78.65c-.77.39-.64,1.36.32,1.2Q59,77.59,72.57,74.23L72,73.08,36,87.93c-.85.35-.59,1.32.32,1.2l24.4-3.2c6.19-.81,12.83-1,18.45-4,1.2-.63.12-1.44-.84-1.07A292.32,292.32,0,0,1,32.48,94.38c-1,.2-1.07,1.48.07,1.3,15.66-2.49,31.69-.83,47.21-4.42l-.59-1.16c-12.18,4.59-24.42,9-37.54,9.67l-.19,1.34q17.83-2,35.7-3.59l-.07-1.3a85.36,85.36,0,0,1-30.38,4.31l.08,1.2c9.43-4,19.4-5.82,29.43-7.57l-.07-1.3a176.84,176.84,0,0,1-34.19,3.52l.32,1.2q16.4-6.09,33.09-11.36c1.17-.37.87-1.53-.33-1.25-13.83,3.21-27.94,4.48-42.06,5.67L33,92,70,79.69c.89-.29,1.12-1.4-.07-1.3L43.54,80.64l.07,1.3,26.48-7.76c1.17-.34.85-1.6-.33-1.25L43.28,80.68c-.92.27-1.1,1.4.07,1.3l26.38-2.25-.07-1.3-37,12.27c-.89.29-1.12,1.4.07,1.3,14.3-1.2,28.58-2.51,42.59-5.76L75,85Q58.07,90.35,41.42,96.53c-.94.35-.51,1.21.32,1.2a179.57,179.57,0,0,0,34.72-3.61c1-.19,1.06-1.49-.07-1.3-10.38,1.81-20.7,3.75-30.46,7.85-.64.27-.77,1.17.08,1.2a88.32,88.32,0,0,0,31.4-4.4c.89-.29,1.12-1.4-.07-1.3q-17.87,1.59-35.7,3.59c-1,.12-1.53,1.41-.19,1.34,13.47-.67,26.07-5.23,38.57-9.94,1.09-.41.34-1.37-.59-1.16-15.34,3.55-31.2,1.86-46.68,4.32l.07,1.3A295.55,295.55,0,0,0,79.2,82l-.84-1.07c-6.24,3.3-14.28,3.29-21.18,4.2L36.54,87.8l.32,1.2,36-14.86c1.07-.44.35-1.39-.59-1.16q-13.36,3.3-26.93,5.53l.32,1.2A253.37,253.37,0,0,1,70.19,68.9c.86-.33.58-1.34-.32-1.2a145,145,0,0,0-20.69,4.71l.59,1.16q9.12-4.25,18.48-7.93c.92-.36.54-1.23-.32-1.2a46.12,46.12,0,0,0-20.6,5.45c-1.16.62-.11,1.57.84,1.07Z"/><path class="cls-2" d="M65.73,56.82a2.35,2.35,0,0,1,1,2.48,2.85,2.85,0,0,1-.56,1.37c-.24.24-.07.19-.3.15s-.58-.41-.75-.57a2,2,0,0,1-.52-2.42,2.71,2.71,0,0,1,.59-.57,4.17,4.17,0,0,0,.4-.29c.27-.28.36,0,0-.23.52.38,2.19-.34,1.68-.71-1.13-.83-2.75.26-3.63,1A2.5,2.5,0,0,0,63.45,61c1.38,1.36,3.29,1.47,4.42-.24s1.05-3.72-.69-4.78c-.51-.31-2.18.44-1.44.88Z"/><path class="cls-2" d="M60.78,44c.26-.33.7-1,1.17-.86a.73.73,0,0,1,.41,1.14c-.21.34-.92,1.06-1.31.82a.94.94,0,0,1-.22-1.15c.11-.16-.35-.12-.39-.12a.84.84,0,0,0-.56.28,1.06,1.06,0,0,0,.88,1.54,3.37,3.37,0,0,0,2.46-1.38c.6-.78,0-1.54-.86-1.59A3,3,0,0,0,59.9,44c-.21.25.72.14.88-.05Z"/><path class="cls-2" d="M56.26,54.64a.73.73,0,0,1,0-.81l.13-.16q.16-.2.1,0a1.38,1.38,0,0,1,.34.19c.36.26,1.28,1.35,1,1.86a.75.75,0,0,1-.44.25c-.19,0-.17,0-.32-.14-.31-.36-.49-.82-.79-1.2S55,54.88,55,55c.48.61.69,1.59,1.61,1.51a5,5,0,0,0,1.49-.41c.34-.14.84-.33.9-.74a2.31,2.31,0,0,0-.73-1.56,1.77,1.77,0,0,0-1.43-.61c-.79,0-2.47.75-1.83,1.8.16.28,1.29-.19,1.21-.32Z"/></g></g></svg>